<?xml version="1.0" encoding="utf-8"?>
<!-- Generator: Adobe Illustrator 20.1.0, SVG Export Plug-In . SVG Version: 6.00 Build 0)  -->
<svg version="1.1" id="Layer_1" xmlns="http://www.w3.org/2000/svg" xmlns:xlink="http://www.w3.org/1999/xlink" x="0px" y="0px"
	 viewBox="0 0 552 210" style="enable-background:new 0 0 552 210;" xml:space="preserve">
<style type="text/css">
	.st0{fill:none;stroke:#231815;stroke-linecap:round;stroke-linejoin:round;}
	.st1{fill:none;stroke:#040000;stroke-width:0.25;stroke-linecap:round;stroke-linejoin:round;}
	.st2{fill:none;stroke:#231815;stroke-width:0.5;stroke-miterlimit:10;}
	.st3{fill:#231815;}
	.st4{font-family:'SourceSansPro-Regular';}
	.st5{font-size:9.91px;}
	.st6{font-family:'MyriadPro-Regular';}
	.st7{font-size:7.71px;}
	.st8{fill:none;stroke:#040000;stroke-width:0.75;stroke-linecap:round;stroke-linejoin:round;stroke-dasharray:0,2;}
	.st9{font-size:6.6px;}
</style>
<title>11x17-02</title>
<g id="Layer_1_1_">
	
		<image style="overflow:visible;enable-background:new    ;" width="3000" height="2000" xlink:href="2.png"  transform="matrix(9.000000e-02 0 0 9.000000e-02 141.36 9.36)">
	</image>
	<line class="st0" x1="468.2" y1="57.7" x2="475.7" y2="69.9"/>
	<path class="st0" d="M438.7,57.7c9.8,1.6,19.7,1.6,29.5,0"/>
	<line class="st0" x1="431" y1="70.3" x2="438.7" y2="57.7"/>
	<line class="st0" x1="435.1" y1="77.6" x2="431" y2="70.3"/>
	<path class="st0" d="M503.4,89.3c-32.7-8.6-67.1-8.6-99.9,0"/>
	<path class="st0" d="M508.7,81.4c3.1-6.5,3.7-14.4,1.8-23.7"/>
	<path class="st0" d="M398.1,81.4c-3.1-6.5-3.7-14.4-1.8-23.7"/>
	<path class="st0" d="M495.1,140.4c-5.6-2.7-9.3-6.1-14.3-9.9c-4.9-3.8-9.6-7.9-14-12.3c-4.4-4.4-8.6-9-12.6-13.7
		c-4.1-4.7-8-9.5-11.5-14.6c-3.5-5.1-6.4-10.3-9.5-16s-6.4-11.5-11.6-14.4c-5.5-2.9-12.2-2.5-17.3,1.1c-5,4.1-7.7,10.5-7,17
		c0.8,5.9,5.2,10.5,9.6,15.1s8.7,9,11.5,14.6s4.3,12.2,2.6,18s-6.4,10.8-10.6,15.1"/>
	<path class="st0" d="M410.3,140.4c5.6-2.7,9.6-5.8,14.5-9.5c4.9-3.7,9.6-7.7,14-12c4.4-4.3,8.6-8.8,12.6-13.5
		c4.1-4.6,8-9.5,11.5-14.5c3.5-5,6.4-10.2,9.5-15.7s6.4-11.3,11.6-14.1c5.5-2.9,12.2-2.5,17.3,1.1c5,4,7.7,10.3,7,16.7
		c-0.8,5.8-5.2,10.4-9.6,14.8s-8.7,8.9-11.5,14.3s-4.3,12-2.6,17.7s6.4,10.6,10.6,14.8"/>
	<polygon class="st1" points="33.1,57.1 62.4,57.1 69.2,69 75.9,57.1 105.3,57.1 112,69 118.7,57.1 148.1,57.1 157.1,73.2 
		135.3,99.9 157.1,126.7 133.4,142.8 112,128.3 69.2,128.3 47.8,142.8 24,126.7 45.8,99.9 24,73.2 	"/>
	<line class="st2" x1="176.6" y1="126.7" x2="160" y2="126.7"/>
	<path class="st3" d="M157,126.7c1.5-0.6,3-1.4,4.3-2.4l-0.9,2.4l0.9,2.4C160,128,158.5,127.2,157,126.7z"/>
	<line class="st2" x1="7.1" y1="126.7" x2="21" y2="126.7"/>
	<path class="st3" d="M24,126.7c-1.5,0.5-3,1.3-4.3,2.3l0.9-2.4l-0.9-2.4C21,125.3,22.5,126.1,24,126.7z"/>
	<line class="st2" x1="32.9" y1="38.8" x2="32.9" y2="54.1"/>
	<path class="st3" d="M32.9,57.1c-0.6-1.5-1.4-3-2.4-4.3l2.4,0.9l2.4-0.9C34.3,54.1,33.5,55.6,32.9,57.1z"/>
	<line class="st2" x1="40.3" y1="38.8" x2="40.3" y2="54.1"/>
	<path class="st3" d="M40.3,57.1c-0.5-1.5-1.3-3-2.3-4.3l2.4,0.9l2.4-0.9C41.7,54.1,40.9,55.6,40.3,57.1z"/>
	<line class="st2" x1="47.7" y1="38.8" x2="47.7" y2="54.1"/>
	<path class="st3" d="M47.7,57.1c-0.6-1.5-1.4-3-2.4-4.3l2.4,0.9l2.4-0.9C49.1,54.1,48.3,55.6,47.7,57.1z"/>
	<line class="st2" x1="55.2" y1="38.8" x2="55.2" y2="54.1"/>
	<path class="st3" d="M55.2,57.1c-0.6-1.5-1.4-3-2.4-4.3l2.4,0.9l2.4-0.9C56.5,54.1,55.7,55.6,55.2,57.1z"/>
	<line class="st2" x1="62.6" y1="38.8" x2="62.6" y2="54.1"/>
	<path class="st3" d="M62.6,57.1c-0.6-1.5-1.4-3-2.4-4.3l2.4,0.9l2.4-0.9C63.9,54.1,63.1,55.6,62.6,57.1z"/>
	<line class="st2" x1="75.8" y1="38.8" x2="75.8" y2="54.1"/>
	<path class="st3" d="M75.8,57.1c-0.6-1.5-1.4-3-2.4-4.3l2.4,0.9l2.4-0.9C77.1,54.1,76.3,55.6,75.8,57.1z"/>
	<line class="st2" x1="83.2" y1="38.8" x2="83.2" y2="54.1"/>
	<path class="st3" d="M83.2,57.1c-0.6-1.5-1.4-3-2.4-4.3l2.4,0.9l2.4-0.9C84.5,54.1,83.7,55.6,83.2,57.1z"/>
	<line class="st2" x1="90.6" y1="38.8" x2="90.6" y2="54.1"/>
	<path class="st3" d="M90.6,57.1c-0.6-1.5-1.4-3-2.4-4.3l2.4,0.9l2.4-0.9C91.9,54.1,91.1,55.6,90.6,57.1z"/>
	<line class="st2" x1="98" y1="38.8" x2="98" y2="54.1"/>
	<path class="st3" d="M98,57.1c-0.6-1.5-1.4-3-2.4-4.3l2.4,0.9l2.4-0.9C99.4,54.1,98.6,55.6,98,57.1z"/>
	<line class="st2" x1="105.4" y1="38.8" x2="105.4" y2="54.1"/>
	<path class="st3" d="M105.4,57.1c-0.6-1.5-1.4-3-2.4-4.3l2.4,0.9l2.4-0.9C106.7,54.1,105.9,55.6,105.4,57.1z"/>
	<line class="st2" x1="118.7" y1="38.8" x2="118.7" y2="54.1"/>
	<path class="st3" d="M118.7,57.1c-0.6-1.5-1.4-3-2.4-4.3l2.4,0.9l2.4-0.9C120,54.1,119.2,55.6,118.7,57.1z"/>
	<line class="st2" x1="126.1" y1="38.8" x2="126.1" y2="54.1"/>
	<path class="st3" d="M126.1,57.1c-0.6-1.5-1.4-3-2.4-4.3l2.4,0.9l2.4-0.9C127.4,54.1,126.6,55.6,126.1,57.1z"/>
	<line class="st2" x1="133.5" y1="38.8" x2="133.5" y2="54.1"/>
	<path class="st3" d="M133.5,57.1c-0.6-1.5-1.4-3-2.4-4.3l2.4,0.9l2.4-0.9C134.8,54.1,134,55.6,133.5,57.1z"/>
	<line class="st2" x1="140.9" y1="38.8" x2="140.9" y2="54.1"/>
	<path class="st3" d="M140.9,57.1c-0.6-1.5-1.4-3-2.4-4.3l2.4,0.9l2.4-0.9C142.3,54.1,141.4,55.6,140.9,57.1z"/>
	<line class="st2" x1="148.3" y1="38.8" x2="148.3" y2="54.1"/>
	<path class="st3" d="M148.3,57.1c-0.6-1.5-1.4-3-2.4-4.3l2.4,0.9l2.4-0.9C149.7,54.1,148.9,55.6,148.3,57.1z"/>
	<text transform="matrix(1 0 0 1 63.15 168.5)" class="st3 st4 st5">Design Domain</text>
	<text transform="matrix(1 0 0 1 81.88 31.28)" class="st3 st6 st7">I</text>
	<text transform="matrix(1 0 0 1 83.8 31.28)" class="st3 st6 st7">nput</text>
	<line class="st2" x1="53.7" y1="142.8" x2="41.5" y2="142.8"/>
	<line class="st2" x1="45.6" y1="142.8" x2="41.5" y2="146.8"/>
	<line class="st2" x1="49.6" y1="142.8" x2="45.6" y2="146.8"/>
	<line class="st2" x1="53.7" y1="142.8" x2="49.6" y2="146.8"/>
	<line class="st2" x1="239.9" y1="142.8" x2="227.7" y2="142.8"/>
	<line class="st2" x1="231.8" y1="142.8" x2="227.7" y2="146.8"/>
	<line class="st2" x1="235.8" y1="142.8" x2="231.8" y2="146.8"/>
	<line class="st2" x1="239.9" y1="142.8" x2="235.8" y2="146.8"/>
	<line class="st2" x1="325.5" y1="142.8" x2="313.3" y2="142.8"/>
	<line class="st2" x1="317.4" y1="142.8" x2="313.3" y2="146.8"/>
	<line class="st2" x1="321.4" y1="142.8" x2="317.4" y2="146.8"/>
	<line class="st2" x1="325.5" y1="142.8" x2="321.4" y2="146.8"/>
	<line class="st2" x1="139.2" y1="142.8" x2="127.1" y2="142.8"/>
	<line class="st2" x1="96.6" y1="111.3" x2="84.5" y2="111.3"/>
	<line class="st2" x1="131.1" y1="142.8" x2="127.1" y2="146.8"/>
	<line class="st2" x1="135.2" y1="142.8" x2="131.1" y2="146.8"/>
	<line class="st2" x1="139.2" y1="142.8" x2="135.2" y2="146.8"/>
	<line class="st2" x1="88.6" y1="111.2" x2="84.8" y2="115.1"/>
	<line class="st2" x1="92.5" y1="111.2" x2="88.6" y2="115.1"/>
	<line class="st2" x1="96.4" y1="111.2" x2="92.5" y2="115.1"/>
	<line class="st2" x1="282.9" y1="111.3" x2="270.7" y2="111.3"/>
	<line class="st2" x1="274.9" y1="111.2" x2="271" y2="115.1"/>
	<line class="st2" x1="278.7" y1="111.2" x2="274.9" y2="115.1"/>
	<line class="st2" x1="282.6" y1="111.2" x2="278.7" y2="115.1"/>
	<polygon class="st8" points="219.3,57.1 248.6,57.1 255.4,69 262.1,57.1 291.5,57.1 298.2,69 304.9,57.1 334.3,57.1 343.4,73.2 
		321.5,99.9 343.4,126.7 319.6,142.8 298.2,128.3 255.4,128.3 234,142.8 210.2,126.7 232,99.9 210.2,73.2 	"/>
	<line class="st2" x1="359.6" y1="126.7" x2="346.2" y2="126.7"/>
	<path class="st3" d="M343.2,126.7c1.5-0.6,3-1.4,4.3-2.4l-0.9,2.4l0.9,2.4C346.2,128,344.7,127.2,343.2,126.7z"/>
	<line class="st2" x1="191.4" y1="126.7" x2="207.2" y2="126.7"/>
	<path class="st3" d="M210.2,126.7c-1.5,0.6-3,1.4-4.3,2.4l0.9-2.4l-0.9-2.4C207.2,125.3,208.7,126.1,210.2,126.7z"/>
	<line class="st2" x1="219.1" y1="38.8" x2="219.1" y2="54.1"/>
	<path class="st3" d="M219.1,57.1c-0.6-1.5-1.4-3-2.4-4.3l2.4,0.9l2.4-0.9C220.5,54.1,219.7,55.6,219.1,57.1z"/>
	<line class="st2" x1="226.6" y1="38.8" x2="226.6" y2="54.1"/>
	<path class="st3" d="M226.6,57.1c-0.6-1.5-1.4-3-2.4-4.3l2.4,0.9l2.4-0.9C227.9,54.1,227.1,55.6,226.6,57.1z"/>
	<line class="st2" x1="234" y1="38.8" x2="234" y2="54.1"/>
	<path class="st3" d="M234,57.1c-0.6-1.5-1.4-3-2.4-4.3l2.4,0.9l2.4-0.9C235.4,54.1,234.6,55.6,234,57.1z"/>
	<line class="st2" x1="241.4" y1="38.8" x2="241.4" y2="54.1"/>
	<path class="st3" d="M241.4,57.1c-0.6-1.5-1.4-3-2.4-4.3l2.4,0.9l2.4-0.9C242.7,54.1,241.9,55.6,241.4,57.1z"/>
	<line class="st2" x1="248.8" y1="38.8" x2="248.8" y2="54.1"/>
	<path class="st3" d="M248.8,57.1c-0.6-1.5-1.4-3-2.4-4.3l2.4,0.9l2.4-0.9C250.1,54.1,249.3,55.6,248.8,57.1z"/>
	<line class="st2" x1="262" y1="38.8" x2="262" y2="54.1"/>
	<path class="st3" d="M262,57.1c-0.6-1.5-1.4-3-2.4-4.3l2.4,0.9l2.4-0.9C263.4,54.1,262.6,55.6,262,57.1z"/>
	<line class="st2" x1="269.4" y1="38.8" x2="269.4" y2="54.1"/>
	<path class="st3" d="M269.4,57.1c-0.6-1.5-1.4-3-2.4-4.3l2.4,0.9l2.4-0.9C270.7,54.1,269.9,55.6,269.4,57.1z"/>
	<line class="st2" x1="276.8" y1="38.8" x2="276.8" y2="54.1"/>
	<path class="st3" d="M276.8,57.1c-0.6-1.5-1.4-3-2.4-4.3l2.4,0.9l2.4-0.9C278.1,54.1,277.3,55.6,276.8,57.1z"/>
	<line class="st2" x1="284.2" y1="38.8" x2="284.2" y2="54.1"/>
	<path class="st3" d="M284.2,57.1c-0.6-1.5-1.4-3-2.4-4.3l2.4,0.9l2.4-0.9C285.6,54.1,284.7,55.6,284.2,57.1z"/>
	<line class="st2" x1="291.6" y1="38.8" x2="291.6" y2="54.1"/>
	<path class="st3" d="M291.6,57.1c-0.6-1.5-1.4-3-2.4-4.3l2.4,0.9l2.4-0.9C293,54.1,292.2,55.6,291.6,57.1z"/>
	<line class="st2" x1="304.9" y1="38.8" x2="304.9" y2="54.1"/>
	<path class="st3" d="M304.9,57.1c-0.6-1.5-1.4-3-2.4-4.3l2.4,0.9l2.4-0.9C306.2,54.1,305.4,55.6,304.9,57.1z"/>
	<line class="st2" x1="312.3" y1="38.8" x2="312.3" y2="54.1"/>
	<path class="st3" d="M312.3,57.1c-0.6-1.5-1.4-3-2.4-4.3l2.4,0.9l2.4-0.9C313.7,54.1,312.8,55.6,312.3,57.1z"/>
	<line class="st2" x1="319.7" y1="38.8" x2="319.7" y2="54.1"/>
	<path class="st3" d="M319.7,57.1c-0.6-1.5-1.4-3-2.4-4.3l2.4,0.9l2.4-0.9C321.1,54.1,320.3,55.6,319.7,57.1z"/>
	<line class="st2" x1="327.1" y1="38.8" x2="327.1" y2="54.1"/>
	<path class="st3" d="M327.1,57.1c-0.6-1.5-1.4-3-2.4-4.3l2.4,0.9l2.4-0.9C328.5,54.1,327.7,55.6,327.1,57.1z"/>
	<line class="st2" x1="334.5" y1="38.8" x2="334.5" y2="54.1"/>
	<path class="st3" d="M334.5,57.1c-0.6-1.5-1.4-3-2.4-4.3l2.4,0.9l2.4-0.9C335.9,54.1,335.1,55.6,334.5,57.1z"/>
	<text transform="matrix(1 0 0 1 219.49 168.5)" class="st3 st4 st5">The </text>
	<text transform="matrix(1 0 0 1 237.06 168.5)" class="st3 st4 st5">R</text>
	<text transform="matrix(1 0 0 1 242.66 168.5)" class="st3 st4 st5">esulting </text>
	<text transform="matrix(1 0 0 1 277.84 168.5)" class="st3 st4 st5">F</text>
	<text transform="matrix(1 0 0 1 282.55 168.5)" class="st3 st4 st5">orm Based on  </text>
	<text transform="matrix(1 0 0 1 215.64 180.39)" class="st3 st4 st5">Compliant Mechanism th</text>
	<text transform="matrix(1 0 0 1 319.14 180.39)" class="st3 st4 st5">r</text>
	<text transform="matrix(1 0 0 1 322.48 180.39)" class="st3 st4 st5">ough </text>
	<text transform="matrix(1 0 0 1 206.54 192.28)" class="st3 st4 st5">T</text>
	<text transform="matrix(1 0 0 1 211.15 192.28)" class="st3 st4 st5">opolo</text>
	<text transform="matrix(1 0 0 1 235.28 192.28)" class="st3 st4 st5">g</text>
	<text transform="matrix(1 0 0 1 240.23 192.28)" class="st3 st4 st5">y Optimi</text>
	<text transform="matrix(1 0 0 1 275.32 192.28)" class="st3 st4 st5">z</text>
	<text transform="matrix(1 0 0 1 279.31 192.28)" class="st3 st4 st5">ation  in Millipede</text>
	<polygon class="st8" points="395.9,57.1 425.3,57.1 432,69 438.7,57.1 468.1,57.1 474.8,69 481.5,57.1 510.9,57.1 520,73.2 
		498.2,99.9 520,126.7 496.2,142.8 474.8,128.3 432,128.3 410.6,142.8 386.8,126.7 408.6,99.9 386.8,73.2 	"/>
	<line class="st2" x1="395.8" y1="38.8" x2="395.8" y2="54.1"/>
	<path class="st3" d="M395.8,57.1c-0.6-1.5-1.4-3-2.4-4.3l2.4,0.9l2.4-0.9C397.1,54.1,396.3,55.6,395.8,57.1z"/>
	<line class="st2" x1="403.2" y1="38.8" x2="403.2" y2="54.1"/>
	<path class="st3" d="M403.2,57.1c-0.6-1.5-1.4-3-2.4-4.3l2.4,0.9l2.4-0.9C404.5,54.1,403.7,55.6,403.2,57.1z"/>
	<line class="st2" x1="410.6" y1="38.8" x2="410.6" y2="54.1"/>
	<path class="st3" d="M410.6,57.1c-0.6-1.5-1.4-3-2.4-4.3l2.4,0.9l2.4-0.9C412,54.1,411.1,55.6,410.6,57.1z"/>
	<line class="st2" x1="418" y1="38.8" x2="418" y2="54.1"/>
	<path class="st3" d="M418,57.1c-0.6-1.5-1.4-3-2.4-4.3l2.4,0.9l2.4-0.9C419.4,54.1,418.6,55.6,418,57.1z"/>
	<line class="st2" x1="425.4" y1="38.8" x2="425.4" y2="54.1"/>
	<path class="st3" d="M425.4,57.1c-0.6-1.5-1.4-3-2.4-4.3l2.4,0.9l2.4-0.9C426.8,54.1,426,55.6,425.4,57.1z"/>
	<line class="st2" x1="438.6" y1="38.8" x2="438.6" y2="54.1"/>
	<path class="st3" d="M438.6,57.1c-0.6-1.5-1.4-3-2.4-4.3l2.4,0.9l2.4-0.9C440,54.1,439.1,55.6,438.6,57.1z"/>
	<line class="st2" x1="446" y1="38.8" x2="446" y2="54.1"/>
	<path class="st3" d="M446,57.1c-0.6-1.5-1.4-3-2.4-4.3l2.4,0.9l2.4-0.9C447.4,54.1,446.6,55.6,446,57.1z"/>
	<line class="st2" x1="453.4" y1="38.8" x2="453.4" y2="54.1"/>
	<path class="st3" d="M453.4,57.1c-0.6-1.5-1.4-3-2.4-4.3l2.4,0.9l2.4-0.9C454.8,54.1,454,55.6,453.4,57.1z"/>
	<line class="st2" x1="460.8" y1="38.8" x2="460.8" y2="54.1"/>
	<path class="st3" d="M460.8,57.1c-0.6-1.5-1.4-3-2.4-4.3l2.4,0.9l2.4-0.9C462.2,54.1,461.4,55.6,460.8,57.1z"/>
	<line class="st2" x1="468.2" y1="38.8" x2="468.2" y2="54.1"/>
	<path class="st3" d="M468.2,57.1c-0.6-1.5-1.4-3-2.4-4.3l2.4,0.9l2.4-0.9C469.6,54.1,468.8,55.6,468.2,57.1z"/>
	<line class="st2" x1="481.5" y1="38.8" x2="481.5" y2="54.1"/>
	<path class="st3" d="M481.5,57.1c-0.6-1.5-1.4-3-2.4-4.3l2.4,0.9l2.4-0.9C482.9,54.1,482.1,55.6,481.5,57.1z"/>
	<line class="st2" x1="488.9" y1="38.8" x2="488.9" y2="54.1"/>
	<path class="st3" d="M488.9,57.1c-0.6-1.5-1.4-3-2.4-4.3l2.4,0.9l2.4-0.9C490.3,54.1,489.5,55.6,488.9,57.1z"/>
	<line class="st2" x1="496.3" y1="38.8" x2="496.3" y2="54.1"/>
	<path class="st3" d="M496.3,57.1c-0.6-1.5-1.4-3-2.4-4.3l2.4,0.9l2.4-0.9C497.7,54.1,496.9,55.6,496.3,57.1z"/>
	<line class="st2" x1="503.7" y1="38.8" x2="503.7" y2="54.1"/>
	<path class="st3" d="M503.7,57.1c-0.6-1.5-1.4-3-2.4-4.3l2.4,0.9l2.4-0.9C505.1,54.1,504.3,55.6,503.7,57.1z"/>
	<line class="st2" x1="511.1" y1="38.8" x2="511.1" y2="54.1"/>
	<path class="st3" d="M511.1,57.1c-0.6-1.5-1.4-3-2.4-4.3l2.4,0.9l2.4-0.9C512.5,54.1,511.7,55.6,511.1,57.1z"/>
	<text transform="matrix(1 0 0 1 392.07 168.5)" class="st3 st4 st5">In</text>
	<text transform="matrix(1 0 0 1 400.04 168.5)" class="st3 st4 st5">t</text>
	<text transform="matrix(1 0 0 1 403.29 168.5)" class="st3 st4 st5">erp</text>
	<text transform="matrix(1 0 0 1 417.14 168.5)" class="st3 st4 st5">r</text>
	<text transform="matrix(1 0 0 1 420.48 168.5)" class="st3 st4 st5">e</text>
	<text transform="matrix(1 0 0 1 425.26 168.5)" class="st3 st4 st5">t</text>
	<text transform="matrix(1 0 0 1 428.43 168.5)" class="st3 st4 st5">ation </text>
	<text transform="matrix(1 0 0 1 452.07 168.5)" class="st3 st4 st5">f</text>
	<text transform="matrix(1 0 0 1 454.87 168.5)" class="st3 st4 st5">or </text>
	<text transform="matrix(1 0 0 1 465.68 168.5)" class="st3 st4 st5">F</text>
	<text transform="matrix(1 0 0 1 470.18 168.5)" class="st3 st4 st5">abri</text>
	<text transform="matrix(1 0 0 1 486.63 168.5)" class="st3 st4 st5">c</text>
	<text transform="matrix(1 0 0 1 491.05 168.5)" class="st3 st4 st5">ation</text>
	<line class="st0" x1="409.4" y1="141.5" x2="497.4" y2="141.5"/>
	<line class="st2" x1="408" y1="141.5" x2="403.9" y2="145.6"/>
	<line class="st2" x1="412" y1="141.5" x2="408" y2="145.6"/>
	<line class="st2" x1="416.1" y1="141.5" x2="412" y2="145.6"/>
	<line class="st2" x1="416.1" y1="141.6" x2="403.9" y2="141.6"/>
	<line class="st2" x1="495.4" y1="141.5" x2="491.3" y2="145.6"/>
	<line class="st2" x1="499.4" y1="141.5" x2="495.4" y2="145.6"/>
	<line class="st2" x1="503.5" y1="141.5" x2="499.4" y2="145.6"/>
	<line class="st2" x1="503.5" y1="141.6" x2="491.3" y2="141.6"/>
	<text transform="matrix(1 0 0 1 7.79 121.66)" class="st3 st6 st9">O</text>
	<text transform="matrix(1 0 0 1 12.36 121.66)" class="st3 st6 st9">utput</text>
	<text transform="matrix(1 0 0 1 156.75 121.66)" class="st3 st6 st9">O</text>
	<text transform="matrix(1 0 0 1 161.32 121.66)" class="st3 st6 st9">utput</text>
	<text transform="matrix(1 0 0 1 190.71 121.66)" class="st3 st6 st9">O</text>
	<text transform="matrix(1 0 0 1 195.28 121.66)" class="st3 st6 st9">utput</text>
	<text transform="matrix(1 0 0 1 344.07 121.66)" class="st3 st6 st9">O</text>
	<text transform="matrix(1 0 0 1 348.64 121.66)" class="st3 st6 st9">utput</text>
	<text transform="matrix(1 0 0 1 267.37 31.28)" class="st3 st6 st7">I</text>
	<text transform="matrix(1 0 0 1 269.29 31.28)" class="st3 st6 st7">nput</text>
	<text transform="matrix(1 0 0 1 444.72 31.28)" class="st3 st6 st7">I</text>
	<text transform="matrix(1 0 0 1 446.64 31.28)" class="st3 st6 st7">nput</text>
</g>
</svg>
