<?xml version="1.0" encoding="utf-8"?>
<!-- Generator: Adobe Illustrator 20.1.0, SVG Export Plug-In . SVG Version: 6.00 Build 0)  -->
<svg version="1.1" id="Layer_1" xmlns="http://www.w3.org/2000/svg" xmlns:xlink="http://www.w3.org/1999/xlink" x="0px" y="0px"
	 viewBox="0 0 984.2 965.3" style="enable-background:new 0 0 984.2 965.3;" xml:space="preserve">
<style type="text/css">
	.st0{fill:#FFFFFF;}
</style>
<title>Taologo1</title>
<path d="M757.3,579.1l1.3,1c-0.9,0.6-2.6,1.4-2.5,1.8c0.2,1.4,0.9,2.6,1.9,3.6c1.2,1.1,1.6,2.2,0.8,3.5c-1.9,2.9-3.9,5.8-5.7,8.7
	c-0.9,1.5-1.3,3.3-2.1,4.9c-1.1,2.2,0.9,2.9,1.7,4.3c0.5,1,0.5,2.2,0.2,3.3c-0.1,0.6-1.3,1.2-2,1.2c-1.4-0.1-3-0.6-3.1,1.2
	c0,0.9,1.5,1.9,2.4,3c0.2-0.2-0.1,0.1-0.5,0.3c-1.5,1.1-3.8,0.9-4.6,3.1c-0.1,0.4-1.5,0.3-2.3,0.5c1.3,5.1,0.8,7.6-1.1,8.3l-3-7.1
	c-1.8,1-3,1.8-1.3,3.7c1.2,1.3,0.8,2.7-0.3,3.9c-1.6,1.7-1.8,5.2-5.6,4c-1.1-0.3-2.3,3.1-1.7,4.5c0.3,0.7,0.6,1.4,0.8,2.2
	c-0.8,0.2-1.6,0.4-2.3,0.7c-0.4,0.2-0.6,0.9-1,0.9c-4,0.6-4.1,3.6-4.4,6.7c-0.3,2.8-1.1,5.5-1.8,8.5c-3.9,1.3-6.4,6.2-5.2,10.8
	c1.1-0.7,2.3-1.4,3.5-2c0.9-0.3,1.8-0.5,2.7-0.5c0,0.8,0.2,1.7,0,2.5c-0.8,2.7-1.7,5.4-2.7,8.1c-0.4,1-1,1.8-1.8,2.5
	c-2.3,1.9-4.7,3.7-7.2,5.3c-1.9,1.1-4,2.2-6.2,2.5c-3.7,0.5-5.9,3-8.4,5.2c-3,2.5-5.5,5.6-8.4,8.2c-1.8,1.7-0.1,2.6,0.7,3.2
	c2.1,1.5,1.8,2.1-0.5,3c-3.3,1.3-6.5,3-9.7,4.5c-0.6,0.3-0.8,1-1.3,1.4c-1.1,0.8-2.2,1.6-3.4,2.4c-0.6,0.4-1.2,0.7-1.9,1.1
	c-1.2,0.6-2.3,1.2-3.9,2l1.1,2.2l-4.9,0.5l-1.3,2.8l-3.2-1.2c-0.9,1.4-2,2.8-3.1,4.1c-0.6,0.7-1.9,1.5-2.5,1.3
	c-0.8-0.3-1.4-1.5-1.9-2.4c-0.3-0.5-0.2-1.2-0.3-2.3c-0.8,0.6-1.7,0.9-1.8,1.3c0,0.7,0.3,1.4,0.8,1.9c1.8,1.9,1.7,2.7-0.6,3.9
	c-1.8,0.9-3.5,2.1-5.3,2.6c-1.9,0.5-4,0.4-6.1,0.6c-0.1,1.5-3.9,4-6,3.7c-1.6-0.2-3.3-0.3-4.7,0.4c-2,0.9-3,2.7-1.9,5.4
	c-3.3-1.4-5.8-1.6-8.1,1.2c-0.8,0.9-3,0.6-4.5,0.9c-1.2,0.1-2.5,0.4-3.7,0.7c-2.2,0.6-4.3,1.4-6.4,2.2c-0.7,0.3-1.3,0.9-2.2,1.7
	l-0.7-2.3c-2.2,1.6-4.3,3.5-7.3,2.3c-0.8-0.4-2-1.1-2.1-1.8c-0.1-0.7,0.6-2,1.3-2.5c1.3-0.8,3-1.2,4.4-1.8c1-0.4,2-1,3-1.5l-0.3-0.7
	l-12,3.8c-0.5,1.9-0.7,3.2-1.3,4.4c-0.1,0.2-1.5-0.4-2.2-0.2c-2.7,0.7-5.4,1.1-8.2,0.1c-0.6-0.2-1.4,0.4-2.1,0.2
	c-1.4-0.2-2.7-0.2-4.1-0.5c-1.7-0.3-3.7,1-4.9-1.5c-0.4-0.9-2.2-1.3-2.7,0.5c-0.9,2.9-3.8,3.3-6,4.3c-1.4,0.6-3.1,0.3-4.6,0.7
	c-1.6,0.6-2.8,0.2-3.2-1.3c-0.1-0.5,1.3-1.8,2.3-2.1c4-1.3,4-1.2,4.7-2.5c-2.2-0.7-4.5-1.2-6.7-2.1c-1.7-0.7-3-0.6-4.7,0
	c-1.2,0.5-3.9,0.1-4.3-0.7c-1.5-3.3-4.4-2.1-6.7-2.5c-3-0.5-6.1-0.2-9.2-0.1c-3.5,0.1-7,0.4-10.4,0.4c-1.1,0-2.2-0.8-3.3-1
	c-2.7-0.5-5.4-0.7-8.1-1.2c-0.7-0.1-1.4-0.7-2-1.1l0.1-0.9c2.7-0.2,5.4-1,7.9-0.6c5.9,1.1,11.7,0.2,17.5-0.6c0.4-0.1,0.7-0.1,1.1,0
	c4.2,0.3,8.1-0.5,12.1-1.6c4.8-1.3,9.8-1.9,14.6-2.9c0.9-0.2,1.7-0.7,3.2-1.3c-3.9-0.3-7-0.6-10.1-0.9c-1.1-0.1-2.2-0.7-3.3-0.8
	c-1.3-0.1-2.4-0.9-4,0c-3.5,1.9-7.1-0.6-6.9-4.6c0-0.6,1.4-1.7,2.2-1.7c4-0.4,8-0.2,11.9-0.7c2.6-0.3,5.1-1.4,7.5-2.6l-13.4-1.1
	l0-0.8l2.5-2.1c-1.4,0-2.3,0-3.1,0c-5.4-0.3-10.8-1.2-16.2-0.9c-5.4,0.3-10.1-1.6-15.1-2.4c-2.1-0.4-4.4-0.1-6.5-0.3
	c-0.7-0.1-1.4-0.3-2.1-0.6v-1l4.9-0.7l-0.3-1.8c2.2,2.6,5.2,2,7.9,2.1c1.7,0.1,3.3,0.6,5,0.9c0.7,0,1.4,0,2.1-0.2
	c4.7-0.3,9.5-0.7,14.2-1c0.5,0,1,0.6,1.5,0.6c0.8-0.1,1.7-0.2,2.5-0.4l-0.1-1.1c-1.1-0.1-2.3-0.4-3.4-0.2c-2.7,0.5-3.4,0-3.9-2.8
	c-0.1-0.6-0.7-1.1-1.2-1.8c1.5-1.3,2.9-2.1,5.1-1.7c2,0.4,4.1,0.3,6.1,0.3c1.1,0,2.2,0,2.9,0c3.6-0.8,6.8-1.5,10-2.2
	c1-0.3,2-0.7,2.9-1.1l-0.3-0.8c-2.3-0.3-4.5-0.5-6.8-1c-0.7-0.1-1.4-0.9-2-1.3c0.7-0.5,1.4-1.2,2.2-1.4c1.8-0.4,3.7-0.3,5.5-0.6
	c0.7-0.1,1.2-0.8,1.9-1c1.7-0.4,3.5-0.7,5.2-1c0.4-0.1,1,0.4,1.3,0.3c5-2.3,10.5,0.1,15.5-1.6c0.8-0.3,1.5-0.6,2.4-0.9
	c1.4,2.2,3.6,0.6,5.6,0.8c0.7,0.1,1.4-0.4,2.1-0.4c5.9-0.2,5.9-0.2,6.8,5.7l7.6-2.9c-1.1-1.2-1.8-1.8-2.2-2.5
	c-0.1-0.2,0.7-0.9,1-1.3l2.1,1.7l9.5-2.4c-0.5-1.7-1.1-3.8,1.2-4.4l-0.3-3.1c0.9,0.1,1.8,0.2,2.7,0.3c1.5,0.1,3,0.2,3.9,0.3l1.7-3
	l0.9,0.1c0.1,2.1,0,4.2,0.5,6.2c0.5,2.1,1.6,4.1,2.6,6.5l1.7-0.7l-1.9-2.5l3.3-5.3c-0.3-0.1-0.5-0.2-0.7-0.4c-1-1-2-2-3.1-3.1
	c1.1-1.1,2.1-2.8,3.4-3.2c3.9-1.1,7.2-3.8,9.1-7.4c0.8-1.5,2.5-2.4,3.9-3.6c2.3-1.9,0.1-3-1-4.7l1.9-1.7l1.8,2.3
	c3.2-0.6,3.2-0.6,4.7,2.1c1.4-1,2.7-2.1,4-3.3c1.9-1.9,3.6-3.6,6.8-2.7c1.8,0.5,4,0.1,6.3,0.1c-0.9-1.3-1.8-2.5-2.7-3.7
	c-0.2-0.3-0.8-0.8-0.8-0.9c0.9-1.6,1-3.2,1.2-5.1c0.1-2,2-2.7,4-3.2c1.2-0.3,2.1-1.8,3-2.7c-0.5-1-0.8-1.8-1.1-2.5
	c-1-2-0.7-3.6,1.5-4.7c1.8-0.9,2.9-0.7,4,1.2c1,1.7,2.5,2,4,0.3c0.1-0.1,0.3-0.2,0.4-0.4c0.6-1.4,2-3.5,1.5-4.2
	c-1.4-1.9-2.8,0.4-4.2,0.8c-0.3,0.1-0.5,0.4-0.7,0.6l-0.9-0.5c0.6-1.2,0.9-2.5,1.6-3.4c2.7-3.3,6.2-5.9,10.1-8.9
	c0,1.6-0.1,2.3,0,2.9c0.3,0.9,0.7,1.9,1.1,2.8c0.9-0.7,2.1-1.2,2.6-2.1c0.4-0.7,0.2-2-0.1-2.9c-0.6-1.5-1.3-2.9-2.1-4.2
	c-1.1,0.2-2.5,3.4-3.7-0.3c-1.7,1.6-3.3,3.3-5.1,4.8c-0.5,0.4-1.4,0.4-2.2,0.6c0-0.6,0-1.3,0-1.9c0-1.2,0-2.4,0-3.5l-0.8-0.3
	l4.8-4.1c-1.6-2.8-1.4-3.2,1.4-4c0.9-0.2,1.7-0.6,2.6-0.8c1.8-0.5,2.6,0.2,2.5,2.1c0,3.8,0.4,4,4.1,2.1c-0.9-1.6,0-6.8,1.5-7.6
	c0.9-0.4,1.9-0.6,2.9-0.5c2,0.2,4,0.7,6,1c0.5-1.8,0.8-2.9,1-3.9c0.4-1.5,0.9-2.8,2.8-2c1.7,0.7,2.7,1.8,1.7,3.8
	c-0.5,0.9-0.9,1.7-1.3,2.6l0.8,0.6c1.1-1.5,2.1-3,3.3-4.4c0.7-0.9,1.6-1.8,2.6-2.4c1.6-0.9,3.5-4.6,3.3-7.1c-1.7,0.4-3.3,0.9-5,0.9
	c-0.4,0-1.3-1.5-1.3-2.3c0.1-1.1,1.1-2.1,1.4-3.2c1.2-4.2,2.3-8.3,3.4-12.5c0.8-3.3,1.7-6.6,2.2-10c0.2-1.1-0.7-2.4-1-3.6l-0.7,0.1
	c-0.7,1.5-1.2,3.1-2,4.6c-0.9,1.6-1.7,3.4-4.2,2.3c-0.3-0.1-1.1,0.2-1.1,0.3c-0.1,1-0.4,2.3,0.1,2.8c3.3,3.8,0.5,8.1,1,12.1
	c0.1,0.8-1.9,2.6-3,2.7c-1.2,0.1-2.5-1.3-3.9-2l-0.4,2.6c-1.9-0.9-2.1-2.8-0.6-5.4l2.2,1.3c0.6-2.4,3.6-4,2.4-6.4
	c-1.5-0.6-3.1-0.8-3.2-1.3c-0.3-1.5-0.1-3.1,0.4-4.6c1-2.4,2.2-4.7,3.5-6.9c0.4-0.8,1-1.4,1.7-2c0.9-0.8,1.9-1.4,2.9-2.1
	c1.5-1.1,2.7-2,2.2-4.5c-0.3-1.8,0.8-4,1.3-5.9c-1.1,0-2.4,0.3-3.4-0.1c-0.6-0.3-0.7-1.7-1-2.7l4.5-0.8l0.9-14
	c-1.8-0.8-1.7-1.5,0-3.5c2.2-2.8,3.9-6,5.7-9.1c0.3-0.4,0-1.6-0.5-2c-1.8-1.7-1.5-3,0.7-4c-2.2-2-2.8-3.9-1.4-6.7
	c0.9-1.7,0.6-4,0.7-6c0.2-2.6,0.3-5.2,0.5-7.9l2.6-0.6l-2.6-6.6l-0.9-0.1c0.5-0.5,1-1.4,1.4-1.3c1.5,0.2,2.9,0.8,4.9,1.4
	c0-2.3,0.1-4.9,0-7.6c-0.1-2.1-0.5-4.3-1-6.4c-0.2-0.7-1-1.3-1.5-2l5-4.6c-2.2-1.9-4.5-3.4-6.3-5.4c-0.8-0.9-0.8-2.7-1-4.1
	c-0.3-2.5-0.3-5-0.7-7.4c-0.4-2.7-0.7-5,1.3-7.4c2.2-2.7,0.8-7.7-2.3-9.5c-2.2-1.2-3-2.9-2.9-5.2c0.1-2.3,0.1-4.7-0.1-7
	c-0.1-1.1-1-2.2-1.5-3.1l-2.7,5c0.4,0.7,1.3,2.2,2.1,3.7c0.2,0.3,0.2,0.6,0.3,1c0.3,4.7,3.3,9.5-1,13.8c-2.1,2.1-3.1,0-4.7-1.5
	l-0.6,13.2c0.7,2.2,1.4,4.4,2,6.6c0.4,1.5,0.1,3.3,2.3,3.9c0.5,0.1,0.9,1.5,1,2.3c0.3,2.8,0.5,5.7,0.4,8.5c-0.1,1-1.3,2-1.9,2.8
	c0.9,4.6,2.3,9.4,2.4,14.2c0.1,3.1-0.6,6.3-0.6,9.5c0,0.6-0.7,1.3-1.1,1.9c-0.3-0.6-0.7-1.3-1-1.9c-0.3-0.4-0.6-0.7-1-1l-0.8,6.5
	l3.5,0.7c-0.7,1-1.4,2-2.2,2.9c-0.8,0.7-1.7,1.4-2.7,2c-0.4-1-0.7-2-0.9-3.1c-0.3-1.5-0.5-2.8-2.5-3.1c-0.4,0-1.2-1.3-1-1.5
	c0.6-0.8,1.4-1.3,2.4-2.3c-0.6-1.6,3.2-4.5-1.1-6c-0.6-3.1,2.4-6.3-0.9-9.3c2.6-4.4,1.5-9.1,1-13.8c-0.6-5-1.4-10.1-2-15.1
	c-0.1-0.7,0.6-1.8,1.3-2.3c1-0.9,2.3-1,0.4-2.6c-1-0.8-0.9-3-1.2-4.6c-0.4-1.7-0.6-3.4-1.1-5c-1-2.7-0.5-5.6,3.6-5.8v-8
	c-2.5,0.1-4.4-1.6-4.7-4.3c-0.1-0.6,0.2-1.7,0.6-1.8c0.7-0.2,1.5-0.1,2.2,0.3c0.6,0.4,1.2,0.8,1.7,1.4c-0.5-2.3-1.2-4.6-1.4-7
	c-0.1-1.4,0.6-2.9,0.7-4.3c0.2-1.2,0.1-2.4,0.2-3.5c0.1-1.6,0.2-3.2,0.3-4.8c0.1-1.1,0.4-2.3,0.1-3.3c-0.8-2.8-1.8-5.6-2.7-8.4
	c-0.2-0.6-0.6-1.1-1.1-1.4c-5.5-3.3-7-9-8.8-14.5c-1-3-0.6-6.4-1.5-9.4c-0.4-1.4-2.6-2.3-4-3.4c-0.6-0.5-1.5-0.8-1.9-1.4
	c-2.5-3.8-4.9-7.8-7.4-11.6c-0.4-0.6-1-1.6-1.6-1.6c-3.8-0.3-6.5-2.9-9.5-4.7c-1.3-0.7-2.3-1.8-2.9-3.1c-2.1-5-6-7.7-11-9.5
	c-2.8-1-5.3-3-8.1-4.6c-2.5,3.3-4.8,0.3-6.8-0.9c-2.7-1.6-5-3.9-7.3-6c-4.4-4.2-9.5-7.4-15.2-9.6c-4.3-1.6-8.2-4.3-12.4-6.2
	c-8-3.4-16-6.6-24-9.9c-0.6-0.3-1.4-0.5-2.1-0.5c-5.1,0.4-9.7-1.2-14.4-2.7c-4.2-1.4-8.3-3-12.6-3.9c-4-0.9-8.1-1.2-12.2-1.7
	c-5-0.6-10-1.1-14.9-1.7c-0.3,0-0.6,0-0.8,0c-5.9-2.5-12-0.3-17.9-0.8c-5.4-0.4-10.5,0.5-15.6,1.4c-2.8,0.5-5.5,1.7-8.3,2.1
	c-3.3,0.4-6.6,0.7-9.9,0.6c-4.6,0-8.6,1.7-12.7,3.4c-3.3,1.3-6.8,2.2-10.2,3.3c-1.6,0.6-3.4,0.9-4.8,1.9c-4.4,3.2-9.4,3.9-14.5,4.1
	c-6.7,0.3-13.2,1.3-19.5,3.7c-2.8,1.1-5.1,3.6-7.7,5.3c-3.7,2.4-7.6,4.6-11.4,6.9c-4.9,3-9.6,6.1-14.5,8.9
	c-7.5,4.3-12.2,11.2-17.5,17.6c-4.6,5.7-9.1,11.5-13.5,17.3c-4.1,5.6-8.6,10.9-11.8,17.2c-2.1,4-3.7,8.2-4.6,12.7
	c-0.6,2.9-2.8,5.4-3.9,8.3c-1.8,4.4-3.2,9-4.9,13.4c-1.1,2.9-3,5.5-3.5,8.4c-0.8,4.6-3.1,8.6-4.5,12.9c-2.1,6.3-3.1,13-4.8,19.4
	c-1,4-1.7,8.2-1.8,12.3c-0.3,3.9-0.1,7.9,0.5,11.8c0.9,5,0.8,10.2,1,15.3c0.2,3.9,0.1,7.8,0.2,11.7c0.2,6.7,0.2,13.4,0.8,20
	c0.6,6,1.5,12.1,2.7,18c1.1,6,2.2,12.1,4.1,17.9c2.8,8.9,7.3,16.8,13.2,24.3c4.9,6.1,10.8,12,12.7,20.3c0.6,2.6,2.4,4.9,3.8,7.2
	c1.8,2.9,3.3,6.3,5.8,8.5c4.2,3.8,9,7,13.6,10.4c6.1,4.6,13.6,6.6,20.4,9.8c4.6,2.1,9.8,3,14.7,4.6c4.1,1.4,8.1,3,12.1,4.5
	c5,1.9,9.9,3.7,14.9,5.6c4,1.5,8,3.2,12.1,4.6c4.8,1.7,9.6,3.3,14.4,4.6c1.4,0.4,3.1-0.2,4.6-0.5c6-1.3,11.3,0.4,15.9,4.2
	c1.7,1.4,3,3.1,4.6,4.5c1.6,1.4,3.6,2.7,5.4,4.1c3.8,3,7.3,6.2,8.9,11c0.1,0.2-0.1,0.4,0,0.6c3.1,3.7,3.6,8.3,4.6,12.8
	c0.1,0.5,0,1-0.2,1.4c-0.3,0.9-1.1,1.8-1.1,2.7c0,5-2.7,9.1-4.6,13.5c-1.9,4.2-4.6,8.1-8,11.3c-4.4,4.2-8.5,8.8-14.5,11.3
	c-8,3.3-16.3,5.7-24.9,6.1c-3,0.1-6.1-0.5-9.2-0.6c-3.5-0.1-7.1-0.1-10.6,0c-4.7,0.1-9.4-0.6-13.9-2.1c-3.4-1-7.3-0.6-10.8-1.4
	c-6-1.3-11.9-3-17.7-4.8c-5.3-1.6-10.5-3.4-15.6-5.3c-6.2-2.3-12.3-4.5-18.3-7.3c-3.3-1.5-6.2-4.1-9.3-6.2c-2.6-1.8-5.3-3.4-8-5.1
	c-4.9-3.1-9.8-6.2-14.7-9.2c-1.4-0.9-2.9-1.5-4.1-2.5c-3.3-2.6-6.3-5.5-9.6-7.8c-6.9-4.8-12.4-10.9-17.2-17.7
	c-3.5-4.9-7.8-9.2-11.5-13.9c-3.3-4.3-6.2-8.9-9.3-13.4c-2.2-3.1-4.4-6.2-6.4-9.5c-3-5.1-7.2-9.3-9.5-14.9
	c-2.6-6.1-5.9-11.9-8.9-17.9c-1.4-2.9-3-5.7-4.1-8.7c-1.3-3.6-2.3-7.4-3.3-11.1c-0.9-3.5-1.6-6.9-2.3-10.4
	c-0.8-4.2-1.4-8.4-2.3-12.5c-0.3-1.2-0.2-3.9-3.6-1.8c0.4-3.3,0.8-5.9,1.1-8.6c0.1-1,0-2.1-0.2-3.1c-0.1-0.8-0.4-1.6-0.5-2.4
	c-0.8-9.4-1.2-18.9-2.4-28.2c-0.7-5.9-2.8-11.6-3.6-17.5c-0.5-4.7-0.6-9.5-0.3-14.2c0.3-6,1-12,1.8-18c0.7-5.4,1.8-10.7,2.9-16.1
	c1.6-7.8,3.1-15.7,4.9-23.4c1.5-6.4,3.2-12.8,5-19.1c2.6-8.7,5.5-17.2,8.1-25.9c2-6.6,3.7-13.4,5.7-20c1.9-6.2,5.8-11.4,9.1-16.9
	c2.2-3.6,4-7.5,6-11.2c0.4-0.8,0.9-1.6,1.5-2.3c2.1-2.9,4.1-5.7,6.2-8.6c2.2-3.1,4.3-6.3,6.8-9.3c3.8-4.6,7.9-9,11.8-13.5
	c4-4.6,8.1-9.2,11.7-14.1c4.3-5.8,9.7-10.5,15.4-14.6c4.1-2.9,8.7-5.1,13.1-7.7c11.4-6.7,22.7-13.6,34.2-20.1
	c3.4-1.9,7.4-2.8,11.1-4.2c2.2-0.8,4.2-1.9,6.4-2.7c5.5-2.1,10.9-4.3,16.5-5.9c5.9-1.7,12-2.8,18-4.1c9.6-2.2,19.2-4.4,28.8-6.5
	c1-0.2,2-0.2,3-0.1c7.1,0.1,13.9-1.2,20.8-2.6c3.8-0.8,7.8-0.8,11.7-1.3c3.4-0.4,6.8-1.3,10.2-1.6c3.5-0.3,7.1-0.1,10.6-0.1
	c2.1,0,4.2-0.3,6.3-0.3c1.7,0,3.4,0.3,5.1,0.4c6.1,0.2,12.2,0.1,18.3,0.6c7.9,0.7,15.8,1.6,23.6,2.8c3.2,0.5,6.3,2.2,9.5,3.2
	c4.8,1.5,9.6,2.9,14.5,4.4c2.7,0.8,5.3,1.8,7.9,2.8c8.2,2.8,16.4,5.4,24.5,8.5c6.4,2.4,12.7,5.1,18.8,8.1c4,2,7.5,4.9,11.1,7.6
	c4.4,3.3,8.6,7,13.1,10.2c6.2,4.4,12.6,8.5,18.7,13c3.6,2.8,7,6,10.1,9.4c5.1,5.4,10.1,11,15,16.7c2,2.3,3.2,5.3,5.1,7.7
	c2.8,3.5,6.1,6.7,9,10.2c4,4.9,8,9.9,11.8,15c3.3,4.4,6.5,9,9.5,13.6c2.1,3.2,3.9,6.5,5.6,9.9c2.2,4.8,4,9.8,6.1,14.6
	c1,2.3,2.2,4.4,3,6.8c0.6,1.8,0.7,3.7,1.2,5.6c1.5,5.1,3.5,10.2,4.8,15.4c1.6,6.3,2.5,12.8,3.8,19.2c0.8,3.9,1.8,7.7,2.8,11.6
	c1.6,6.5,3.9,13,2.3,19.9c-0.4,1.7,0.9,3.8,0.3,5.3c-1.7,4.7,0.9,8.8,1,13.2c0.1,5.1-0.1,10.1-0.2,15.2c0,0.9,0.1,2.6,0.6,2.7
	c3.9,1.3,1.1,4.8,2.3,7c0.6,1.1-0.1,2.9-0.2,4.3c-0.1,1.9,0.9,3.9-1.3,5.3c-0.5,0.3-0.3,1.9-0.2,2.9c0.6,4.1,1.9,8.3,1.6,12.3
	c-0.2,2.3,0,5.7-2.9,7.5c-0.4,0.2-0.1,1.8,0.1,2.7c0.3,1.8,1,3.5,1.1,5.3c0.5,10.1-0.7,20.1-2.2,30.1c-0.6,3.7-1.4,7.3-2.3,10.8
	C758.9,577.2,757.9,578.1,757.3,579.1z M594.1,714.2c-3.7-4.6-5.4-5-10.2-3c-1.5,0.7-3,1.2-4.5,1.7c-0.7,0.2-1.9,0.2-2.1-0.2
	c-1.4-2-2.9-1.4-4.5-0.7l2.8,3.8L594.1,714.2z M556.4,717.7c1.3,0.1,2.7,0.1,4,0c2.2-0.2,4.4-0.6,6.7-1c0.9-0.2,1.6-0.7,2.4-1.1
	c-0.9-1,0.2-3.4-2.3-3.3c-3.4,0.1-6.8,0-9.8,0L556.4,717.7z M705.2,605.8c-3.1-0.9-5.9-1.3-6.8,2.9c-0.1,0.6-0.9,0.9-1.3,1.4
	c-1.3,1.6-0.8,3.2,1.2,3.7c0.8,0.2,1.6,0.3,2.4,0.4c-2.2-1.6-3-3.7-1.3-5.6c1.6-1.7,3.4-0.9,4.3,1.5L705.2,605.8z M576.9,741.1l0,1
	c1.8,0.1,3.7,1.9,5.3-1.3L576.9,741.1z"/>
<path d="M611.9,670.6l-28.2,7.9l0.2,0.7c0.1,0.1,0.3,0.1,0.4,0.2c1.1,0.6,2.2,1.1,3.3,1.8c0.1,0.1-0.2,1.3-0.4,1.3
	c-1.2,0.1-2.5,0-3.7,0.1c-0.7,0.1-1.4,0.1-2,0.1c-1.6-0.2-3.2-0.4-4.8-0.7l0-0.9l2.8-1.8c-1.8-1.7-0.8-2.6,0.9-3.3
	c3.6-1.3,7.3-2.6,10.9-4l-1.3-1.4c1.6-1.6,5.2-2.1,7-1.2c2.3,1.2,5.9,0.4,7.2-1.5l-2-2.2c1-0.6,2-1.6,3.1-1.7
	c2.4-0.3,4.9,0.1,7.2-0.2c1.5-0.3,2.9-0.9,4.1-1.9c2.3-1.8,4.2-4,6.6-5.6c0.9-0.7,2.5-0.4,3.8-0.6l0.5,1.2c-2.7,2.2-5.6,4.1-8.1,6.6
	c-2,2-5.4,2.7-5.6,6.2c0,0.7,0.2,1.4,0,2c-0.6,1.6-1.3,3.2-2.3,4.7c-0.3,0.4-1.7-0.1-2.6-0.1c0.1-0.8,0-1.8,0.5-2.4
	c0.7-0.9,1.7-1.6,2.6-2.3L611.9,670.6z"/>
<path d="M662.6,623.5c-1-3.2,1.3-5.3,2.6-7.7c0.5-1,1.2-2,1.9-3c0.9-1.1,2.2-1.9,3-3.1c1.8-2.9,3.4-5.9,5.1-8.8c0-0.1,0-0.2,0-0.3
	c-4-4.7,1.8-5.6,2.7-8.4l2.9,2.7h0.9c-1,1.9-2.1,3.9-3.1,5.8c-1.6,3-3.2,6-4.7,9.1c-0.3,0.6,0.2,2.1,0.5,2.2
	c1.5,0.3,2.3,1.2,1.7,2.4c-0.3,0.7-1.8,0.7-2.7,1c-1.1,2-2.1,4.2-3.6,6c-0.9,1-2.6,1.4-4,1.8c-1,0.3-2.2,0.1-3.3,0.2L662.6,623.5z"
	/>
<path d="M662.5,623.4c-0.7,1.3-1.3,2.6-2,3.9c-0.4,0.7-0.8,1.4-1.1,2.2c-0.8,2.9-2.5,4.8-5,6.4c-1.4,0.9-2.1,2.9-3.1,4.4
	c-0.6,0.7-1.1,1.4-1.5,2.2c-0.4,1.1-0.7,2.2-1,3.3l1,0.9c-1.1,0.3-2.1,0.8-3.2,0.8c-0.3,0-0.6-1.5-1.1-2.8l-2.9-0.8
	c1.8-2.2,3.2-4.3,5-5.8c2.3-2,4.7-3.7,5.4-6.9c0.1-0.6,0.8-1.2,1.3-1.7c1.7-1.8,3.6-3.5,5.2-5.4c1-1.2,1.8-1.7,3.1-0.6L662.5,623.4z
	"/>
<path d="M691.9,373.3c-2.5-2.5-5-5.1-7.6-7.6c-0.8-0.8-1.8-2-2.5,0.2c-0.1,0.2-1.9,0.4-2,0.1c-1.4-2.5-2.7-5-3.9-7.6
	c-0.1-0.2,0.1-0.7,0.3-1.3l2.3,0.6c1.4-2.5,2.8-2.7,4.6-0.6c0.4,0.5,0.6,1.4,1.1,1.5c4,1,4.5,4.1,5,7.4c0.2,1,1.2,1.9,1.7,2.8
	c0.7,1.2,1.3,2.4,1.9,3.5L691.9,373.3z"/>
<path d="M558,678.8c4.6-0.3,9.3-0.7,13.9-0.9c0.9,0,2.5,1,2.5,1.6c0,1.3-0.8,2.6-1.2,4c0.1,0.1,1.1,0.1,1.4,0.6
	c0.6,0.8,0.7,1.9,1.1,2.8c-0.9,0.2-2.2,0.9-2.7,0.6c-2.2-1.6-4.3-1.4-6.7-0.6c-1.1,0.4-2.5-0.5-3.9-0.8c1.7-3.7,4.4-2.1,6.7-2.1
	l0.1-0.8l-11.2-3.3L558,678.8z"/>
<path d="M633.2,655.7c-0.1,0-0.2-0.1-0.2-0.1l-5.1-0.2c0.8-1.6,1.2-3.7,2.5-4.7c2.9-2.3,6.3-4.2,9.5-6.2c0.4-0.3,1.1-0.1,1.6-0.1
	c1,2.2-0.2,3.4-1.8,4.4c-2.2,1.4-4.1,3-4.6,5.6l0.8-0.2c0.7,1.3,1.6,2.4,1.9,3.8c0.1,0.5-1.2,1.3-1.8,2l-3.2-3.8L633.2,655.7z"/>
<path d="M708.4,543.1c-0.3,2.9-0.6,5.9-0.8,8.8c-0.2,1.8-1.2,2.8-2.9,2.4c-1.8-0.4-1.6-1.5-1.2-3.1c0.4-1.8,0-3.7,0.2-5.5
	c0.2-1.5,0.7-2.9,1.5-4.2c0.4-0.6,1.8-1,2.6-0.8c0.5,0.1,0.7,1.4,1.1,2.2L708.4,543.1z"/>
<path d="M529.7,723.4c-1.9,0.2-3.9,0.6-5.8,0.5c-3.8-0.2-7.6-0.6-11.4-1.1c-0.8-0.1-1.6-0.8-2.3-1.2c0.8-0.5,1.6-1.5,2.4-1.4
	c5,0.2,10,0.6,15,1.1c0.8,0.1,1.5,0.6,2.2,1L529.7,723.4z"/>
<path d="M527.4,695.3c4.8-3.4,10.2-0.6,15.5-1.3c0,1.7,0.5,2.9-2.2,2.4c-1.7-0.4-3.8,1.2-5.7,1.2c-2.6,0-5.1-0.7-7.6-1.1
	L527.4,695.3z"/>
<path d="M700.6,390.8l-1.4,2.3c-0.8-0.6-1.9-1-2.2-1.7c-1.1-2.9-2-5.9-2.8-8.9c-0.1-0.4,0.6-1.3,1.1-1.5c0.7,0,1.3,0.3,1.7,0.8
	c1.2,2.4,2.2,4.9,3.2,7.4c0.1,0.5,0.1,0.9,0,1.4L700.6,390.8z"/>
<path d="M595.2,679.2c-1.5,3.3-2.4,3.8-5.4,2.8c0-2.9,1.5-4,4.8-3.1c1.4-0.7,1.4-3.9,3.9-2.3c0.5,0.3,0.7,2,0.3,2.6
	C597.9,681,596.5,681.1,595.2,679.2z"/>
<path d="M713.4,451.9c-1.6-3-0.7-5.8-0.8-8.5c0.6,0,1.6-0.3,1.9,0C715.9,445.2,715.4,449.5,713.4,451.9z"/>
<path d="M712.8,532.4c-1.5,1.1-2.4,2-3.5,2.4c-0.3,0.1-1.9-1.5-1.7-2c0.4-1.2,1.5-2.3,2.2-3.4L712.8,532.4z"/>
<path d="M519.8,694c2,0,4.2-0.7,5.2,1.8c0.1,0.2-1.4,1.3-2.2,1.5C520.6,697.6,519,697.1,519.8,694z"/>
<path d="M537.9,716.5c-1.4,0.1-2.7,0.2-4.1,0.4c-0.9,0.2-1.7,0.3-2.6,0.3c-0.6,0-1-0.6-1.6-0.8c0.2-0.4,0.4-1.1,0.7-1.1
	c2.5-0.2,5-0.3,7.5-0.4L537.9,716.5z"/>
<path d="M559.6,676.6l-2.5-3.1c1.3-0.4,2.5-1.1,3.7-1.2c1.9-0.1,2.5,1,1.4,2.1C561.3,675.2,560.4,675.8,559.6,676.6z"/>
<path d="M687.7,379.3l-3.2-6.4C687.7,372.9,689,375.2,687.7,379.3z"/>
<path d="M698.1,587.4c0.6,1.2,1.2,2.3,1.5,3.5c0.1,0.5-0.8,1.2-1.2,1.7c-0.9-1-1.8-2.2-2.5-3.3c-0.2-0.3,0.8-1.2,1.2-1.9
	L698.1,587.4z"/>
<path d="M720.1,442.5l1,4.5c-0.8,0.1-2.2,0.6-2.4,0.2c-1.1-1.3-1-3.3,0.2-4.6L720.1,442.5z"/>
<path d="M723.6,479c-1.4,1.3-2.3,1.2-2.7-0.8c0-0.3,0-0.6,0-0.8c0.1-1,0.3-2,0.4-3c0.4,0.8,0.8,1.6,1.1,2.4
	C722.8,477.6,723.2,478.2,723.6,479z"/>
<path d="M691.8,588.1c0.5,1.2,1.3,2.3,1.5,3.5c0.1,0.6-1.1,1.3-1.7,2l-0.6-0.4l-0.2-4.6L691.8,588.1z"/>
<path d="M682.6,590.5l2.3-5.3c1.2,3.2,0.5,5.2-1.5,5.8L682.6,590.5z"/>
<path d="M567.5,675.4c1.4-0.8,2.3-1.6,2.6-1.4c0.9,0.4,1.7,1.3,2.5,2c-0.5,0.4-1.1,1.2-1.5,1.1C570.2,676.9,569.2,676.3,567.5,675.4
	z"/>
<path d="M712.4,517V512C714.8,513.6,714.9,514.8,712.4,517z"/>
<path d="M704.4,587.8c1,2.9,0.6,3.5-2.9,3.7l1.9-4.2L704.4,587.8z"/>
<path d="M714.8,524.6l-3.4,2.2l-0.7-0.4c0.3-1,0.4-2.4,1.1-2.8c0.7-0.5,1.9,0.1,3,0.2L714.8,524.6z"/>
<path d="M672.2,350.6l2.3,4c-0.6,0.1-1.3,0.4-1.8,0.2C671.1,354.2,670.7,353.1,672.2,350.6z"/>
<path d="M686.4,600.2l3.7-4.1l0.8,0.5c-0.6,1.1-1,2.4-1.7,3.3C688.9,600.3,687.8,600.1,686.4,600.2z"/>
<path d="M699.4,556.2c-0.2,1.3-0.5,2.6-0.8,3.8c-0.4,0-0.9,0-1.3-0.1l0.3-4L699.4,556.2z"/>
<path d="M551.1,682.9l-5.3-0.7c2.4-2.4,3.9-1.5,5.4-0.3L551.1,682.9z"/>
<path d="M722,471.2c-0.6-1.3-1.1-2.5-1.6-3.8c-0.1-0.1,0.5-0.7,0.7-0.7c0.4,0,1,0.3,1.1,0.6c0.4,1.1,0.6,2.3,0.9,3.5L722,471.2z"/>
<path d="M542.4,749.4c1.9-2.2,1.9-2.2,4.4,0.7l-4.4,0.3L542.4,749.4z"/>
<path d="M513,701.9h3.6c0,0.5,0,1.4-0.1,1.4c-1.1,0.2-2.3,0.3-3.4,0.4L513,701.9z"/>
<path d="M703.5,396.5l-2.9-1.7l2.9-2.4V396.5z"/>
<path class="st0" d="M594.1,714.2l-18.6,1.6l-2.8-3.8c1.6-0.7,3.1-1.3,4.5,0.7c0.3,0.4,1.5,0.4,2.1,0.2c1.6-0.5,3.1-1,4.5-1.7
	C588.7,709.2,590.3,709.6,594.1,714.2z"/>
<path class="st0" d="M556.4,717.7l1-5.4c3,0,6.4,0.1,9.8,0c2.6-0.1,1.4,2.3,2.3,3.3c-0.8,0.4-1.6,0.9-2.4,1.1
	c-2.2,0.4-4.4,0.8-6.7,1C559.1,717.8,557.7,717.8,556.4,717.7z"/>
<path class="st0" d="M705.2,605.8l-1.5,4.4c-0.9-2.4-2.7-3.3-4.3-1.5c-1.7,1.9-0.9,4,1.3,5.6c-0.8-0.1-1.6-0.2-2.4-0.4
	c-2-0.6-2.5-2.2-1.2-3.7c0.4-0.5,1.2-0.9,1.3-1.4C699.3,604.5,702.1,605,705.2,605.8z"/>
<path class="st0" d="M576.9,741.1l5.3-0.4c-1.6,3.2-3.5,1.5-5.3,1.3L576.9,741.1z"/>
</svg>
