<?xml version="1.0" encoding="utf-8"?>
<!-- Generator: Adobe Illustrator 20.1.0, SVG Export Plug-In . SVG Version: 6.00 Build 0)  -->
<svg version="1.1" id="Layer_1" xmlns="http://www.w3.org/2000/svg" xmlns:xlink="http://www.w3.org/1999/xlink" x="0px" y="0px"
	 viewBox="0 0 116 116" style="enable-background:new 0 0 116 116;" xml:space="preserve">
<style type="text/css">
	.st0{fill:none;stroke:#FFFFFF;stroke-width:8;stroke-miterlimit:10;}
</style>
<path class="st0" d="M31,86.4c0.8,14.2,12.5,25.6,27,25.6s26.2-11.4,27-25.6l0,0c14.9,0,27-12.1,27-27s-12.1-27-27-27l0,0
	c0-0.5,0-0.9,0-1.4C85,16.1,72.9,4,58,4S31,16.1,31,31c0,0.5,0,0.9,0,1.4l0,0c-14.9,0-27,12.1-27,27S16.1,86.4,31,86.4L31,86.4z"/>
</svg>
