<?xml version="1.0" encoding="utf-8"?>
<!-- Generator: Adobe Illustrator 20.1.0, SVG Export Plug-In . SVG Version: 6.00 Build 0)  -->
<svg version="1.1" id="Layer_1" xmlns="http://www.w3.org/2000/svg" xmlns:xlink="http://www.w3.org/1999/xlink" x="0px" y="0px"
	 viewBox="0 0 19 19" style="enable-background:new 0 0 19 19;" xml:space="preserve">
<style type="text/css">
	.st0{fill:#FFFFFF;stroke:#111111;stroke-width:0.75;stroke-miterlimit:10;}
</style>
<path class="st0" d="M5,14.2c0.1,2.4,2.1,4.3,4.5,4.3s4.4-1.9,4.5-4.3l0,0c2.5,0,4.5-2,4.5-4.5s-2-4.5-4.5-4.5l0,0C14,5.1,14,5,14,5
	c0-2.5-2-4.5-4.5-4.5S5,2.5,5,5c0,0.1,0,0.2,0,0.2l0,0c-2.5,0-4.5,2.1-4.5,4.5S2.5,14.2,5,14.2L5,14.2z"/>
</svg>
