<?xml version="1.0" encoding="utf-8"?>
<!-- Generator: Adobe Illustrator 20.1.0, SVG Export Plug-In . SVG Version: 6.00 Build 0)  -->
<svg version="1.1" id="Layer_1" xmlns="http://www.w3.org/2000/svg" xmlns:xlink="http://www.w3.org/1999/xlink" x="0px" y="0px"
	 viewBox="0 0 137 102.8" style="enable-background:new 0 0 137 102.8;" xml:space="preserve">
<style type="text/css">
	.st0{fill:#FFFFFF;stroke:#231815;stroke-width:2;stroke-miterlimit:10;}
</style>
<path class="st0" d="M95.5,51.4C103.6,46.7,109,38,109,28c0-14.9-12.1-27-27-27S55,13.1,55,28C55,13.1,42.9,1,28,1S1,13.1,1,28
	s12.1,27,27,27c4.9,0,9.5-1.3,13.5-3.6l0,0C33.4,56.1,28,64.8,28,74.8c0,14.9,12.1,27,27,27s27-12.1,27-27c0,14.9,12.1,27,27,27
	s27-12.1,27-27s-12.1-27-27-27C104.1,47.8,99.5,49.1,95.5,51.4"/>
</svg>
